<svg width="26" height="24" viewBox="0 0 26 24" fill="none" xmlns="http://www.w3.org/2000/svg">
<path d="M0.0544434 1.49146C0.0544434 0.888992 0.539139 0.404297 1.14161 0.404297H3.2027C4.19927 0.404297 5.08259 0.98412 5.49481 1.85385H24.1126C25.3039 1.85385 26.1736 2.98632 25.8611 4.13691L24.0038 11.0359C23.6188 12.4583 22.3278 13.4503 20.8556 13.4503H7.78692L8.03154 14.7413C8.13119 15.2532 8.57965 15.6246 9.10058 15.6246H22.1602C22.7627 15.6246 23.2474 16.1093 23.2474 16.7118C23.2474 17.3143 22.7627 17.799 22.1602 17.799H9.10058C7.53325 17.799 6.18788 16.6846 5.89797 15.149L3.56056 2.87307C3.52885 2.70094 3.37936 2.57863 3.2027 2.57863H1.14161C0.539139 2.57863 0.0544434 2.09394 0.0544434 1.49146ZM5.85267 21.4229C5.85267 21.1373 5.90891 20.8546 6.01818 20.5908C6.12745 20.327 6.28761 20.0873 6.48952 19.8854C6.69142 19.6835 6.93112 19.5233 7.19492 19.414C7.45873 19.3048 7.74147 19.2485 8.02701 19.2485C8.31254 19.2485 8.59529 19.3048 8.85909 19.414C9.12289 19.5233 9.36259 19.6835 9.56449 19.8854C9.7664 20.0873 9.92656 20.327 10.0358 20.5908C10.1451 20.8546 10.2013 21.1373 10.2013 21.4229C10.2013 21.7084 10.1451 21.9912 10.0358 22.255C9.92656 22.5188 9.7664 22.7585 9.56449 22.9604C9.36259 23.1623 9.12289 23.3224 8.85909 23.4317C8.59529 23.541 8.31254 23.5972 8.02701 23.5972C7.74147 23.5972 7.45873 23.541 7.19492 23.4317C6.93112 23.3224 6.69142 23.1623 6.48952 22.9604C6.28761 22.7585 6.12745 22.5188 6.01818 22.255C5.90891 21.9912 5.85267 21.7084 5.85267 21.4229ZM21.073 19.2485C21.6497 19.2485 22.2027 19.4776 22.6105 19.8854C23.0183 20.2932 23.2474 20.8462 23.2474 21.4229C23.2474 21.9995 23.0183 22.5526 22.6105 22.9604C22.2027 23.3681 21.6497 23.5972 21.073 23.5972C20.4963 23.5972 19.9433 23.3681 19.5355 22.9604C19.1278 22.5526 18.8987 21.9995 18.8987 21.4229C18.8987 20.8462 19.1278 20.2932 19.5355 19.8854C19.9433 19.4776 20.4963 19.2485 21.073 19.2485Z" fill="#3D3B38"/>
</svg>
