<svg width="24" height="22" viewBox="0 0 24 22" fill="none" xmlns="http://www.w3.org/2000/svg">
<path d="M12.1367 21.7578C12.0195 21.7578 11.8789 21.7227 11.7148 21.6523C11.5586 21.5898 11.418 21.5195 11.293 21.4414C9.08984 20.0352 7.17969 18.5625 5.5625 17.0234C3.94531 15.4766 2.69531 13.8906 1.8125 12.2656C0.9375 10.6328 0.5 8.98438 0.5 7.32031C0.5 6.28125 0.664062 5.33203 0.992188 4.47266C1.32812 3.60547 1.79297 2.85547 2.38672 2.22266C2.98047 1.58984 3.67188 1.10156 4.46094 0.757812C5.25 0.414062 6.10547 0.242188 7.02734 0.242188C8.17578 0.242188 9.18359 0.535156 10.0508 1.12109C10.918 1.70703 11.6133 2.48047 12.1367 3.44141C12.668 2.47266 13.3672 1.69922 14.2344 1.12109C15.1016 0.535156 16.1055 0.242188 17.2461 0.242188C18.168 0.242188 19.0234 0.414062 19.8125 0.757812C20.6094 1.10156 21.3008 1.58984 21.8867 2.22266C22.4805 2.85547 22.9414 3.60547 23.2695 4.47266C23.6055 5.33203 23.7734 6.28125 23.7734 7.32031C23.7734 8.98438 23.332 10.6328 22.4492 12.2656C21.5742 13.8906 20.3281 15.4766 18.7109 17.0234C17.1016 18.5625 15.1953 20.0352 12.9922 21.4414C12.8672 21.5195 12.7227 21.5898 12.5586 21.6523C12.4023 21.7227 12.2617 21.7578 12.1367 21.7578Z" fill="#3D3B38"/>
</svg>
