<svg width="21" height="24" viewBox="0 0 21 24" fill="none" xmlns="http://www.w3.org/2000/svg">
<path d="M10.3532 12.0008C11.891 12.0008 13.3658 11.3899 14.4532 10.3025C15.5405 9.21511 16.1514 7.74031 16.1514 6.20252C16.1514 4.66474 15.5405 3.18994 14.4532 2.10256C13.3658 1.01518 11.891 0.404297 10.3532 0.404297C8.81541 0.404297 7.34061 1.01518 6.25323 2.10256C5.16585 3.18994 4.55497 4.66474 4.55497 6.20252C4.55497 7.74031 5.16585 9.21511 6.25323 10.3025C7.34061 11.3899 8.81541 12.0008 10.3532 12.0008ZM8.28305 14.1751C3.82113 14.1751 0.206299 17.7899 0.206299 22.2518C0.206299 22.9947 0.808771 23.5972 1.55167 23.5972H19.1547C19.8976 23.5972 20.5001 22.9947 20.5001 22.2518C20.5001 17.7899 16.8853 14.1751 12.4233 14.1751H8.28305Z" fill="#3D3B38"/>
</svg>
