<svg width="21" height="20" viewBox="0 0 21 20" fill="none" xmlns="http://www.w3.org/2000/svg">
<path d="M16.7508 8.12381C16.7508 9.91652 16.1687 11.5725 15.1882 12.9161L20.1338 17.8646C20.6221 18.3528 20.6221 19.1456 20.1338 19.6338C19.6455 20.1221 18.8525 20.1221 18.3642 19.6338L13.4186 14.6853C12.0748 15.6696 10.4185 16.2476 8.6254 16.2476C4.1369 16.2476 0.5 12.6114 0.5 8.12381C0.5 3.63619 4.1369 0 8.6254 0C13.1139 0 16.7508 3.63619 16.7508 8.12381ZM8.6254 13.748C9.36412 13.748 10.0956 13.6025 10.7781 13.3199C11.4606 13.0372 12.0807 12.623 12.6031 12.1007C13.1254 11.5784 13.5398 10.9584 13.8225 10.2761C14.1052 9.59373 14.2507 8.86239 14.2507 8.12381C14.2507 7.38523 14.1052 6.65389 13.8225 5.97153C13.5398 5.28917 13.1254 4.66917 12.6031 4.14692C12.0807 3.62466 11.4606 3.21039 10.7781 2.92775C10.0956 2.64511 9.36412 2.49963 8.6254 2.49963C7.88668 2.49963 7.15519 2.64511 6.4727 2.92775C5.79021 3.21039 5.17008 3.62466 4.64773 4.14692C4.12537 4.66917 3.71102 5.28917 3.42832 5.97153C3.14562 6.65389 3.00012 7.38523 3.00012 8.12381C3.00012 8.86239 3.14562 9.59373 3.42832 10.2761C3.71102 10.9584 4.12537 11.5784 4.64773 12.1007C5.17008 12.623 5.79021 13.0372 6.4727 13.3199C7.15519 13.6025 7.88668 13.748 8.6254 13.748Z" fill="#8C6B52"/>
</svg>
