<svg width="56" height="56" viewBox="0 0 56 56" fill="none" xmlns="http://www.w3.org/2000/svg">
<mask id="mask0_701_493" style="mask-type:alpha" maskUnits="userSpaceOnUse" x="0" y="0" width="56" height="56">
<rect x="0.479492" y="0.341553" width="55.0287" height="55.0287" fill="#D9D9D9"/>
</mask>
<g mask="url(#mask0_701_493)">
<path d="M46.2224 48.4917C41.4456 48.4917 36.7261 47.4504 32.064 45.3677C27.4018 43.285 23.16 40.333 19.3386 36.5115C15.5172 32.6901 12.5651 28.4483 10.4824 23.7861C8.39974 19.124 7.3584 14.4045 7.3584 9.62772C7.3584 8.93986 7.58768 8.36665 8.04626 7.90807C8.50483 7.4495 9.07805 7.22021 9.7659 7.22021H19.052C19.587 7.22021 20.0647 7.40173 20.485 7.76477C20.9054 8.12781 21.1538 8.55772 21.2302 9.0545L22.7206 17.0795C22.797 17.691 22.7779 18.2068 22.6633 18.6272C22.5486 19.0476 22.3384 19.4106 22.0327 19.7163L16.4725 25.3338C17.2368 26.7478 18.1444 28.1139 19.1953 29.4323C20.2462 30.7507 21.4022 32.0213 22.6633 33.2442C23.8479 34.4288 25.0899 35.5275 26.3892 36.5402C27.6884 37.5529 29.0642 38.4796 30.5163 39.3203L35.9045 33.9321C36.2485 33.5881 36.6975 33.3302 37.2516 33.1582C37.8057 32.9862 38.3502 32.9385 38.8853 33.0149L46.7956 34.6199C47.3306 34.7728 47.7701 35.0498 48.114 35.4511C48.4579 35.8523 48.6299 36.3013 48.6299 36.7981V46.0842C48.6299 46.7721 48.4006 47.3453 47.9421 47.8039C47.4835 48.2624 46.9103 48.4917 46.2224 48.4917ZM14.2943 20.9774L18.0775 17.1942L17.1031 11.8059H12.0014C12.1925 13.3727 12.46 14.9204 12.8039 16.449C13.1479 17.9776 13.6447 19.487 14.2943 20.9774ZM34.8154 41.4985C36.3058 42.1481 37.8248 42.664 39.3725 43.0462C40.9202 43.4283 42.4774 43.6767 44.0442 43.7914V38.7471L38.656 37.658L34.8154 41.4985Z" fill="white"/>
</g>
</svg>
