<svg width="56" height="56" viewBox="0 0 56 56" fill="none" xmlns="http://www.w3.org/2000/svg">
<mask id="mask0_701_498" style="mask-type:alpha" maskUnits="userSpaceOnUse" x="0" y="0" width="56" height="56">
<rect x="0.479492" y="0.370117" width="55.0287" height="55.0287" fill="#D9D9D9"/>
</mask>
<g mask="url(#mask0_701_498)">
<path d="M48.5152 51.6729L41.7512 44.9089V50.0105H37.1655V37.0559H50.1202V41.6416H44.9612L51.7252 48.4055L48.5152 51.6729ZM27.994 50.813C24.8223 50.813 21.8415 50.2112 19.0519 49.0074C16.2622 47.8037 13.8356 46.17 11.7721 44.1064C9.70848 42.0429 8.07481 39.6162 6.87106 36.8266C5.66731 34.0369 5.06543 31.0562 5.06543 27.8844C5.06543 24.7126 5.66731 21.7319 6.87106 18.9423C8.07481 16.1526 9.70848 13.726 11.7721 11.6624C13.8356 9.59886 16.2622 7.96519 19.0519 6.76144C21.8415 5.55769 24.8223 4.95581 27.994 4.95581C31.1658 4.95581 34.1466 5.55769 36.9362 6.76144C39.7259 7.96519 42.1525 9.59886 44.216 11.6624C46.2796 13.726 47.9133 16.1526 49.117 18.9423C50.3208 21.7319 50.9227 24.7126 50.9227 27.8844C50.9227 28.6487 50.8845 29.413 50.808 30.1773C50.7316 30.9416 50.617 31.7059 50.4641 32.4702H45.7637C45.9548 31.7059 46.0981 30.9416 46.1936 30.1773C46.2892 29.413 46.3369 28.6487 46.3369 27.8844C46.3369 27.1201 46.2892 26.3559 46.1936 25.5916C46.0981 24.8273 45.9548 24.063 45.7637 23.2987H37.968C38.0826 24.063 38.1686 24.8273 38.2259 25.5916C38.2833 26.3559 38.3119 27.1201 38.3119 27.8844C38.3119 28.6487 38.2833 29.413 38.2259 30.1773C38.1686 30.9416 38.0826 31.7059 37.968 32.4702H33.3823C33.4969 31.7059 33.5829 30.9416 33.6402 30.1773C33.6975 29.413 33.7262 28.6487 33.7262 27.8844C33.7262 27.1201 33.6975 26.3559 33.6402 25.5916C33.5829 24.8273 33.4969 24.063 33.3823 23.2987H22.6058C22.4912 24.063 22.4052 24.8273 22.3479 25.5916C22.2906 26.3559 22.2619 27.1201 22.2619 27.8844C22.2619 28.6487 22.2906 29.413 22.3479 30.1773C22.4052 30.9416 22.4912 31.7059 22.6058 32.4702H30.2869V37.0559H23.6376C24.0962 38.6991 24.6885 40.2754 25.4146 41.7849C26.1407 43.2944 27.0005 44.737 27.994 46.1127C28.7583 46.1127 29.5226 46.0649 30.2869 45.9694C31.0512 45.8738 31.8155 45.7879 32.5798 45.7114V50.4118C31.8155 50.4882 31.0512 50.5742 30.2869 50.6697C29.5226 50.7653 28.7583 50.813 27.994 50.813ZM10.2244 32.4702H18.0201C17.9055 31.7059 17.8195 30.9416 17.7622 30.1773C17.7048 29.413 17.6762 28.6487 17.6762 27.8844C17.6762 27.1201 17.7048 26.3559 17.7622 25.5916C17.8195 24.8273 17.9055 24.063 18.0201 23.2987H10.2244C10.0333 24.063 9.88999 24.8273 9.79446 25.5916C9.69892 26.3559 9.65115 27.1201 9.65115 27.8844C9.65115 28.6487 9.69892 29.413 9.79446 30.1773C9.88999 30.9416 10.0333 31.7059 10.2244 32.4702ZM12.1733 18.713H18.9372C19.2812 17.2991 19.7111 15.9138 20.227 14.5572C20.7429 13.2006 21.3447 11.8726 22.0326 10.5733C19.9308 11.2612 18.0392 12.3025 16.3578 13.6973C14.6763 15.0922 13.2815 16.764 12.1733 18.713ZM22.0326 45.1955C21.3447 43.8963 20.7429 42.5683 20.227 41.2117C19.7111 39.8551 19.2812 38.4698 18.9372 37.0559H12.1733C13.2815 39.0048 14.6763 40.6767 16.3578 42.0715C18.0392 43.4663 19.9308 44.5077 22.0326 45.1955ZM23.6376 18.713H32.3505C31.8919 17.0698 31.2996 15.4934 30.5735 13.984C29.8474 12.4745 28.9876 11.0319 27.994 9.65618C27.0005 11.0319 26.1407 12.4745 25.4146 13.984C24.6885 15.4934 24.0962 17.0698 23.6376 18.713ZM37.0509 18.713H43.8148C42.7066 16.764 41.3118 15.0922 39.6303 13.6973C37.9489 12.3025 36.0573 11.2612 33.9555 10.5733C34.6433 11.8726 35.2452 13.2006 35.7611 14.5572C36.277 15.9138 36.7069 17.2991 37.0509 18.713Z" fill="white"/>
</g>
</svg>
