<svg width="56" height="56" viewBox="0 0 56 56" fill="none" xmlns="http://www.w3.org/2000/svg">
<mask id="mask0_701_488" style="mask-type:alpha" maskUnits="userSpaceOnUse" x="0" y="0" width="56" height="56">
<rect x="0.479492" y="0.312744" width="55.0287" height="55.0287" fill="#D9D9D9"/>
</mask>
<g mask="url(#mask0_701_488)">
<path d="M27.9934 50.7557C23.9427 50.7557 20.6371 50.1156 18.0768 48.8354C15.5164 47.5552 14.2362 45.9025 14.2362 43.8771C14.2362 42.9599 14.5133 42.1097 15.0674 41.3263C15.6215 40.5429 16.3953 39.8646 17.3889 39.2914L21.0002 42.6733C20.6562 42.8262 20.2836 42.9982 19.8824 43.1892C19.4811 43.3803 19.1659 43.6096 18.9366 43.8771C19.4334 44.4885 20.5798 45.0235 22.3759 45.4821C24.172 45.9407 26.0445 46.17 27.9934 46.17C29.9423 46.17 31.8244 45.9407 33.6396 45.4821C35.4548 45.0235 36.6107 44.4885 37.1075 43.8771C36.84 43.5714 36.4961 43.323 36.0757 43.1319C35.6554 42.9408 35.2541 42.7689 34.872 42.616L38.4259 39.1767C39.4959 39.7882 40.3175 40.4856 40.8907 41.269C41.464 42.0524 41.7506 42.9217 41.7506 43.8771C41.7506 45.9025 40.4704 47.5552 37.91 48.8354C35.3497 50.1156 32.0441 50.7557 27.9934 50.7557ZM28.0507 38.1449C31.8339 35.3553 34.6809 32.5561 36.5916 29.7473C38.5023 26.9386 39.4577 24.1203 39.4577 21.2924C39.4577 17.3945 38.2157 14.452 35.7318 12.4649C33.2479 10.4777 30.6684 9.48416 27.9934 9.48416C25.3184 9.48416 22.7389 10.4777 20.255 12.4649C17.771 14.452 16.5291 17.3945 16.5291 21.2924C16.5291 23.8528 17.4653 26.5182 19.3378 29.2888C21.2103 32.0593 24.1146 35.0114 28.0507 38.1449ZM27.9934 43.8771C22.6052 39.9028 18.5831 36.0431 15.9272 32.2981C13.2713 28.5531 11.9434 24.8846 11.9434 21.2924C11.9434 18.5792 12.4306 16.2003 13.4051 14.1559C14.3795 12.1114 15.631 10.4013 17.1596 9.02559C18.6882 7.64987 20.4078 6.61808 22.3186 5.93023C24.2293 5.24237 26.1209 4.89844 27.9934 4.89844C29.8659 4.89844 31.7575 5.24237 33.6682 5.93023C35.5789 6.61808 37.2986 7.64987 38.8272 9.02559C40.3557 10.4013 41.6073 12.1114 42.5817 14.1559C43.5562 16.2003 44.0434 18.5792 44.0434 21.2924C44.0434 24.8846 42.7155 28.5531 40.0596 32.2981C37.4037 36.0431 33.3816 39.9028 27.9934 43.8771ZM27.9934 25.5342C29.2545 25.5342 30.334 25.0852 31.2321 24.1871C32.1301 23.2891 32.5791 22.2095 32.5791 20.9485C32.5791 19.6874 32.1301 18.6078 31.2321 17.7098C30.334 16.8118 29.2545 16.3627 27.9934 16.3627C26.7323 16.3627 25.6528 16.8118 24.7547 17.7098C23.8567 18.6078 23.4077 19.6874 23.4077 20.9485C23.4077 22.2095 23.8567 23.2891 24.7547 24.1871C25.6528 25.0852 26.7323 25.5342 27.9934 25.5342Z" fill="white"/>
</g>
</svg>
