<svg width="18" height="24" viewBox="0 0 18 24" fill="none" xmlns="http://www.w3.org/2000/svg">
<path d="M9 23.1133C8.69531 23.1133 8.44531 23.0156 8.25 22.8203C8.05469 22.6328 7.95703 22.3867 7.95703 22.082V6.64844L8.07422 3.15625L8.73047 3.39062L4.53516 7.99609L1.86328 10.6211C1.76953 10.7148 1.65625 10.7852 1.52344 10.832C1.39844 10.8789 1.26562 10.9023 1.125 10.9023C0.835938 10.9023 0.59375 10.8047 0.398438 10.6094C0.210938 10.4141 0.117188 10.1719 0.117188 9.88281C0.117188 9.60156 0.226562 9.34766 0.445312 9.12109L8.21484 1.32812C8.33203 1.21094 8.45703 1.125 8.58984 1.07031C8.72266 1.00781 8.85938 0.976562 9 0.976562C9.14844 0.976562 9.28906 1.00781 9.42188 1.07031C9.55469 1.125 9.67578 1.21094 9.78516 1.32812L17.5664 9.12109C17.7773 9.34766 17.8828 9.60156 17.8828 9.88281C17.8828 10.1719 17.7852 10.4141 17.5898 10.6094C17.4023 10.8047 17.1641 10.9023 16.875 10.9023C16.7344 10.9023 16.5977 10.8789 16.4648 10.832C16.3398 10.7852 16.2305 10.7148 16.1367 10.6211L13.4648 7.99609L9.25781 3.39062L9.92578 3.15625L10.043 6.64844V22.082C10.043 22.3867 9.94531 22.6328 9.75 22.8203C9.55469 23.0156 9.30469 23.1133 9 23.1133Z" fill="black"/>
</svg>
