<svg width="213" height="74" viewBox="0 0 213 74" fill="none" xmlns="http://www.w3.org/2000/svg">
<path d="M7.0293 33.3184L16.2843 37.1856V61.4139L7.0293 57.7119V33.3184Z" fill="white"/>
<path d="M7.0293 33.3184L16.2843 37.1856V61.4139L7.0293 57.7119V33.3184Z" fill="white"/>
<path d="M35.0586 45.2175L44.3136 48.8204V73.313L35.0586 69.611V45.2175Z" fill="white"/>
<path d="M35.0586 45.2175L44.3136 48.8204V73.313L35.0586 69.611V45.2175Z" fill="white"/>
<path d="M7.06213 43.9284L7.06213 33.3365L44.2808 48.8534L44.2808 58.505L7.06213 43.9284Z" fill="white"/>
<path d="M7.06213 43.9284L7.06213 33.3365L44.2808 48.8534L44.2808 58.505L7.06213 43.9284Z" fill="white"/>
<path d="M67.6173 39.8629L67.4056 49.8912L44.7745 58.8357L44.7745 48.8205L67.6173 39.8629Z" fill="white"/>
<path d="M67.6173 39.8629L67.4056 49.8912L44.7745 58.8357L44.7745 48.8205L67.6173 39.8629Z" fill="white"/>
<path d="M58.3945 43.4651L67.6165 39.8623L67.6495 64.1236L58.3945 60.4216V43.4651Z" fill="white"/>
<path d="M58.3945 43.4651L67.6165 39.8623L67.6495 64.1236L58.3945 60.4216V43.4651Z" fill="white"/>
<path d="M41.006 28.3933L67.4489 39.5654L44.5428 48.556L16.877 37.0533L41.006 28.3933Z" fill="white"/>
<path d="M41.006 28.3933L67.4489 39.5654L44.5428 48.556L16.877 37.0533L41.006 28.3933Z" fill="white"/>
<path d="M7.02734 7.76782L16.8442 12.2301L16.6459 36.9541L7.02734 33.0207V7.76782Z" fill="white"/>
<path d="M7.02734 7.76782L16.8442 12.2301L16.6459 36.9541L7.02734 33.0207V7.76782Z" fill="white"/>
<path d="M41.0059 3.47034L17.1081 12.2626L16.8437 36.8214L40.9398 28.1613L41.0059 3.47034Z" fill="white"/>
<path d="M41.0059 3.47034L17.1081 12.2626L16.8437 36.8214L40.9398 28.1613L41.0059 3.47034Z" fill="white"/>
<path d="M30.8586 0L40.9399 3.2723L16.9761 12.1307L7.15918 7.53621L30.8586 0Z" fill="white"/>
<path d="M30.8586 0L40.9399 3.2723L16.9761 12.1307L7.15918 7.53621L30.8586 0Z" fill="white"/>
<path d="M86.5652 44.8145L81.5013 38.096H80.3623V44.8145H77.03V29.0534H80.3623V35.3486H81.0319L86.265 29.0534H90.4131L84.2641 36.3644L90.6978 44.8145H86.5652ZM105.968 36.9339C105.968 38.6526 105.643 40.1149 104.991 41.3205C104.344 42.5262 103.462 43.4472 102.344 44.0833C101.23 44.7144 99.9784 45.0299 98.588 45.0299C97.1874 45.0299 95.9304 44.7118 94.817 44.0757C93.7037 43.4395 92.8238 42.5185 92.1774 41.3128C91.5309 40.1072 91.2077 38.6475 91.2077 36.9339C91.2077 35.2152 91.5309 33.753 92.1774 32.5473C92.8238 31.3416 93.7037 30.4232 94.817 29.7922C95.9304 29.156 97.1874 28.8379 98.588 28.8379C99.9784 28.8379 101.23 29.156 102.344 29.7922C103.462 30.4232 104.344 31.3416 104.991 32.5473C105.643 33.753 105.968 35.2152 105.968 36.9339ZM102.59 36.9339C102.59 35.8206 102.423 34.8817 102.09 34.1172C101.761 33.3528 101.297 32.773 100.697 32.378C100.096 31.9829 99.3935 31.7854 98.588 31.7854C97.7825 31.7854 97.0796 31.9829 96.4793 32.378C95.8791 32.773 95.4122 33.3528 95.0787 34.1172C94.7503 34.8817 94.5862 35.8206 94.5862 36.9339C94.5862 38.0472 94.7503 38.9861 95.0787 39.7506C95.4122 40.515 95.8791 41.0948 96.4793 41.4898C97.0796 41.8849 97.7825 42.0824 98.588 42.0824C99.3935 42.0824 100.096 41.8849 100.697 41.4898C101.297 41.0948 101.761 40.515 102.09 39.7506C102.423 38.9861 102.59 38.0472 102.59 36.9339ZM108.437 44.8145V29.0534H111.769V35.5564H118.534V29.0534H121.858V44.8145H118.534V38.3038H111.769V44.8145H108.437ZM138.512 34.5713H135.141C135.08 34.1352 134.954 33.7478 134.764 33.4092C134.574 33.0655 134.331 32.773 134.033 32.5319C133.736 32.2907 133.392 32.106 133.002 31.9778C132.617 31.8495 132.199 31.7854 131.747 31.7854C130.932 31.7854 130.221 31.988 129.616 32.3934C129.01 32.7935 128.541 33.3784 128.207 34.148C127.874 34.9125 127.707 35.8411 127.707 36.9339C127.707 38.0575 127.874 39.0015 128.207 39.766C128.546 40.5304 129.018 41.1076 129.623 41.4975C130.229 41.8875 130.929 42.0824 131.724 42.0824C132.171 42.0824 132.584 42.0234 132.963 41.9054C133.348 41.7874 133.689 41.6155 133.987 41.3898C134.285 41.1589 134.531 40.8793 134.726 40.551C134.926 40.2226 135.064 39.8481 135.141 39.4274L138.512 39.4428C138.425 40.1662 138.207 40.8639 137.858 41.536C137.514 42.203 137.05 42.8007 136.465 43.3292C135.885 43.8525 135.193 44.268 134.387 44.5759C133.587 44.8786 132.681 45.0299 131.671 45.0299C130.265 45.0299 129.008 44.7118 127.9 44.0757C126.796 43.4395 125.924 42.5185 125.283 41.3128C124.647 40.1072 124.329 38.6475 124.329 36.9339C124.329 35.2152 124.652 33.753 125.298 32.5473C125.945 31.3416 126.822 30.4232 127.93 29.7922C129.039 29.156 130.285 28.8379 131.671 28.8379C132.584 28.8379 133.43 28.9661 134.21 29.2227C134.995 29.4792 135.69 29.8537 136.296 30.3463C136.901 30.8337 137.394 31.4314 137.773 32.1394C138.158 32.8474 138.404 33.658 138.512 34.5713ZM140.301 31.8008V29.0534H153.246V31.8008H148.421V44.8145H145.127V31.8008H140.301ZM155.378 44.8145V29.0534H161.596C162.791 29.0534 163.81 29.2817 164.651 29.7383C165.492 30.1898 166.134 30.8183 166.575 31.6238C167.021 32.4241 167.245 33.3476 167.245 34.3943C167.245 35.4409 167.019 36.3644 166.567 37.1648C166.116 37.9652 165.462 38.5885 164.605 39.0349C163.753 39.4812 162.722 39.7044 161.511 39.7044H157.548V37.034H160.972C161.614 37.034 162.142 36.9236 162.558 36.703C162.978 36.4773 163.291 36.1669 163.497 35.7718C163.707 35.3717 163.812 34.9125 163.812 34.3943C163.812 33.871 163.707 33.4143 163.497 33.0244C163.291 32.6294 162.978 32.3241 162.558 32.1086C162.137 31.888 161.603 31.7777 160.957 31.7777H158.71V44.8145H155.378ZM171.11 45.0299V42.321H171.964C172.39 42.321 172.734 42.2697 172.995 42.1671C173.257 42.0593 173.465 41.9029 173.619 41.6976C173.778 41.4873 173.911 41.2256 174.019 40.9127L174.211 40.397L168.485 29.0534H171.933L175.643 36.8108L178.744 29.0534H182.146L176.712 41.7207C176.451 42.3056 176.14 42.8494 175.781 43.3522C175.427 43.855 174.973 44.2604 174.419 44.5682C173.865 44.876 173.157 45.0299 172.295 45.0299H171.11ZM193.484 44.8145L188.42 38.096H187.281V44.8145H183.948V29.0534H187.281V35.3486H187.95L193.183 29.0534H197.331L191.182 36.3644L197.616 44.8145H193.484ZM198.692 31.8008V29.0534H211.636V31.8008H206.811V44.8145H203.517V31.8008H198.692Z" fill="white"/>
</svg>
