<svg width="212" height="74" viewBox="0 0 212 74" fill="none" xmlns="http://www.w3.org/2000/svg">
<path d="M6.5498 33.3184L15.8048 37.1856V61.4139L6.5498 57.7119V33.3184Z" fill="black"/>
<path d="M6.5498 33.3184L15.8048 37.1856V61.4139L6.5498 57.7119V33.3184Z" fill="black"/>
<path d="M34.5791 45.2168L43.8341 48.8196V73.3123L34.5791 69.6103V45.2168Z" fill="black"/>
<path d="M34.5791 45.2168L43.8341 48.8196V73.3123L34.5791 69.6103V45.2168Z" fill="black"/>
<path d="M6.58264 43.9279L6.58264 33.336L43.8013 48.8529L43.8013 58.5045L6.58264 43.9279Z" fill="black"/>
<path d="M6.58264 43.9279L6.58264 33.336L43.8013 48.8529L43.8013 58.5045L6.58264 43.9279Z" fill="black"/>
<path d="M67.1378 39.8624L66.9261 49.8907L44.295 58.8352L44.295 48.82L67.1378 39.8624Z" fill="black"/>
<path d="M67.1378 39.8624L66.9261 49.8907L44.295 58.8352L44.295 48.82L67.1378 39.8624Z" fill="black"/>
<path d="M57.915 43.4642L67.137 39.8613L67.17 64.1226L57.915 60.4206V43.4642Z" fill="black"/>
<path d="M57.915 43.4642L67.137 39.8613L67.17 64.1226L57.915 60.4206V43.4642Z" fill="black"/>
<path d="M40.5266 28.3926L66.9694 39.5647L44.0633 48.5552L16.3975 37.0526L40.5266 28.3926Z" fill="black"/>
<path d="M40.5266 28.3926L66.9694 39.5647L44.0633 48.5552L16.3975 37.0526L40.5266 28.3926Z" fill="black"/>
<path d="M6.54785 7.76758L16.3648 12.2298L16.1664 36.9539L6.54785 33.0205V7.76758Z" fill="black"/>
<path d="M6.54785 7.76758L16.3648 12.2298L16.1664 36.9539L6.54785 33.0205V7.76758Z" fill="black"/>
<path d="M40.5269 3.4707L16.6291 12.2629L16.3647 36.8217L40.4607 28.1617L40.5269 3.4707Z" fill="black"/>
<path d="M40.5269 3.4707L16.6291 12.2629L16.3647 36.8217L40.4607 28.1617L40.5269 3.4707Z" fill="black"/>
<path d="M30.3796 0L40.4609 3.2723L16.4971 12.1307L6.68018 7.53621L30.3796 0Z" fill="black"/>
<path d="M30.3796 0L40.4609 3.2723L16.4971 12.1307L6.68018 7.53621L30.3796 0Z" fill="black"/>
<path d="M86.0857 44.8145L81.0218 38.096H79.8828V44.8145H76.5505V29.0534H79.8828V35.3486H80.5524L85.7855 29.0534H89.9336L83.7846 36.3644L90.2183 44.8145H86.0857ZM105.489 36.9339C105.489 38.6526 105.163 40.1149 104.511 41.3205C103.865 42.5262 102.983 43.4472 101.864 44.0833C100.751 44.7144 99.4989 45.0299 98.1085 45.0299C96.7079 45.0299 95.4509 44.7118 94.3375 44.0757C93.2242 43.4395 92.3443 42.5185 91.6979 41.3128C91.0514 40.1072 90.7282 38.6475 90.7282 36.9339C90.7282 35.2152 91.0514 33.753 91.6979 32.5473C92.3443 31.3416 93.2242 30.4232 94.3375 29.7922C95.4509 29.156 96.7079 28.8379 98.1085 28.8379C99.4989 28.8379 100.751 29.156 101.864 29.7922C102.983 30.4232 103.865 31.3416 104.511 32.5473C105.163 33.753 105.489 35.2152 105.489 36.9339ZM102.11 36.9339C102.11 35.8206 101.944 34.8817 101.61 34.1172C101.282 33.3528 100.817 32.773 100.217 32.378C99.6169 31.9829 98.914 31.7854 98.1085 31.7854C97.303 31.7854 96.6001 31.9829 95.9998 32.378C95.3996 32.773 94.9327 33.3528 94.5992 34.1172C94.2708 34.8817 94.1067 35.8206 94.1067 36.9339C94.1067 38.0472 94.2708 38.9861 94.5992 39.7506C94.9327 40.515 95.3996 41.0948 95.9998 41.4898C96.6001 41.8849 97.303 42.0824 98.1085 42.0824C98.914 42.0824 99.6169 41.8849 100.217 41.4898C100.817 41.0948 101.282 40.515 101.61 39.7506C101.944 38.9861 102.11 38.0472 102.11 36.9339ZM107.957 44.8145V29.0534H111.29V35.5564H118.054V29.0534H121.379V44.8145H118.054V38.3038H111.29V44.8145H107.957ZM138.033 34.5713H134.662C134.6 34.1352 134.475 33.7478 134.285 33.4092C134.095 33.0655 133.851 32.773 133.554 32.5319C133.256 32.2907 132.912 32.106 132.522 31.9778C132.138 31.8495 131.719 31.7854 131.268 31.7854C130.452 31.7854 129.742 31.988 129.136 32.3934C128.531 32.7935 128.061 33.3784 127.728 34.148C127.394 34.9125 127.228 35.8411 127.228 36.9339C127.228 38.0575 127.394 39.0015 127.728 39.766C128.067 40.5304 128.539 41.1076 129.144 41.4975C129.749 41.8875 130.45 42.0824 131.245 42.0824C131.691 42.0824 132.104 42.0234 132.484 41.9054C132.869 41.7874 133.21 41.6155 133.507 41.3898C133.805 41.1589 134.051 40.8793 134.246 40.551C134.446 40.2226 134.585 39.8481 134.662 39.4274L138.033 39.4428C137.945 40.1662 137.727 40.8639 137.378 41.536C137.035 42.203 136.57 42.8007 135.986 43.3292C135.406 43.8525 134.713 44.268 133.908 44.5759C133.107 44.8786 132.202 45.0299 131.191 45.0299C129.785 45.0299 128.528 44.7118 127.42 44.0757C126.317 43.4395 125.445 42.5185 124.803 41.3128C124.167 40.1072 123.849 38.6475 123.849 36.9339C123.849 35.2152 124.172 33.753 124.819 32.5473C125.465 31.3416 126.343 30.4232 127.451 29.7922C128.559 29.156 129.806 28.8379 131.191 28.8379C132.104 28.8379 132.951 28.9661 133.731 29.2227C134.516 29.4792 135.211 29.8537 135.816 30.3463C136.422 30.8337 136.914 31.4314 137.294 32.1394C137.679 32.8474 137.925 33.658 138.033 34.5713ZM139.822 31.8008V29.0534H152.766V31.8008H147.941V44.8145H144.647V31.8008H139.822ZM154.898 44.8145V29.0534H161.116C162.312 29.0534 163.33 29.2817 164.172 29.7383C165.013 30.1898 165.654 30.8183 166.096 31.6238C166.542 32.4241 166.765 33.3476 166.765 34.3943C166.765 35.4409 166.539 36.3644 166.088 37.1648C165.636 37.9652 164.982 38.5885 164.125 39.0349C163.274 39.4812 162.242 39.7044 161.032 39.7044H157.068V37.034H160.493C161.134 37.034 161.663 36.9236 162.078 36.703C162.499 36.4773 162.812 36.1669 163.017 35.7718C163.228 35.3717 163.333 34.9125 163.333 34.3943C163.333 33.871 163.228 33.4143 163.017 33.0244C162.812 32.6294 162.499 32.3241 162.078 32.1086C161.658 31.888 161.124 31.7777 160.478 31.7777H158.23V44.8145H154.898ZM170.63 45.0299V42.321H171.485C171.91 42.321 172.254 42.2697 172.516 42.1671C172.777 42.0593 172.985 41.9029 173.139 41.6976C173.298 41.4873 173.432 41.2256 173.539 40.9127L173.732 40.397L168.006 29.0534H171.454L175.163 36.8108L178.265 29.0534H181.666L176.233 41.7207C175.971 42.3056 175.661 42.8494 175.302 43.3522C174.948 43.855 174.494 44.2604 173.94 44.5682C173.385 44.876 172.677 45.0299 171.815 45.0299H170.63ZM193.004 44.8145L187.94 38.096H186.801V44.8145H183.469V29.0534H186.801V35.3486H187.471L192.704 29.0534H196.852L190.703 36.3644L197.137 44.8145H193.004ZM198.212 31.8008V29.0534H211.157V31.8008H206.331V44.8145H203.037V31.8008H198.212Z" fill="black"/>
</svg>
