<svg width="10" height="16" viewBox="0 0 10 16" fill="none" xmlns="http://www.w3.org/2000/svg">
<path d="M9.38281 8C9.38281 8.11133 9.3623 8.2168 9.32129 8.31641C9.28027 8.41016 9.21875 8.49805 9.13672 8.58008L2.16699 15.3916C2.00879 15.5498 1.81836 15.6289 1.5957 15.6289C1.44336 15.6289 1.30566 15.5938 1.18262 15.5234C1.06543 15.4531 0.96875 15.3564 0.892578 15.2334C0.822266 15.1162 0.787109 14.9814 0.787109 14.8291C0.787109 14.6123 0.866211 14.4219 1.02441 14.2578L7.42285 8L1.02441 1.74219C0.866211 1.57812 0.787109 1.3877 0.787109 1.1709C0.787109 1.01855 0.822266 0.883789 0.892578 0.766602C0.96875 0.643555 1.06543 0.546875 1.18262 0.476562C1.30566 0.40625 1.44336 0.371094 1.5957 0.371094C1.81836 0.371094 2.00879 0.447266 2.16699 0.599609L9.13672 7.41992C9.21875 7.50195 9.28027 7.59277 9.32129 7.69238C9.3623 7.78613 9.38281 7.88867 9.38281 8Z" fill="#A49689"/>
</svg>
