<svg width="146" height="27" viewBox="0 0 146 27" fill="none" xmlns="http://www.w3.org/2000/svg">
<path d="M11.6064 2.44824C12.1124 1.1501 14.0252 1.19352 14.4375 2.57812L16.335 8.95605L16.3652 9.03223C16.4479 9.20185 16.6211 9.3134 16.8145 9.31348H23.1309L23.2617 9.31836C24.5461 9.42121 25.105 11.0247 24.1621 11.9033L24.0625 11.9883L18.8066 16.1582C18.6466 16.2851 18.5795 16.4966 18.6377 16.6924L20.6094 23.3174L20.6426 23.4482C20.9168 24.7471 19.4522 25.7376 18.3486 25L18.2393 24.9209L13.3105 21.0107C13.1513 20.8845 12.9344 20.8691 12.7607 20.9639L12.6895 21.0107L7.76074 24.9209C6.61192 25.8322 4.97239 24.7229 5.39062 23.3174L7.3623 16.6924L7.37793 16.6182C7.39843 16.4697 7.35111 16.3198 7.24902 16.21L7.19336 16.1582L1.9375 11.9883C0.824376 11.1052 1.44845 9.31383 2.86914 9.31348H9.18555L9.2666 9.30664C9.45303 9.27602 9.60975 9.14157 9.66504 8.95605L11.5625 2.57812L11.6064 2.44824Z" fill="#F7FF00" stroke="black"/>
<path d="M41.6064 2.44824C42.1124 1.1501 44.0252 1.19352 44.4375 2.57812L46.335 8.95605L46.3652 9.03223C46.4479 9.20185 46.6211 9.3134 46.8145 9.31348H53.1309L53.2617 9.31836C54.5461 9.42121 55.105 11.0247 54.1621 11.9033L54.0625 11.9883L48.8066 16.1582C48.6466 16.2851 48.5795 16.4966 48.6377 16.6924L50.6094 23.3174L50.6426 23.4482C50.9168 24.7471 49.4522 25.7376 48.3486 25L48.2393 24.9209L43.3105 21.0107C43.1513 20.8845 42.9344 20.8691 42.7607 20.9639L42.6895 21.0107L37.7607 24.9209C36.6119 25.8322 34.9724 24.7229 35.3906 23.3174L37.3623 16.6924L37.3779 16.6182C37.3984 16.4697 37.3511 16.3198 37.249 16.21L37.1934 16.1582L31.9375 11.9883C30.8244 11.1052 31.4484 9.31383 32.8691 9.31348H39.1855L39.2666 9.30664C39.453 9.27602 39.6097 9.14157 39.665 8.95605L41.5625 2.57812L41.6064 2.44824Z" fill="#F7FF00" stroke="black"/>
<path d="M71.6064 2.44824C72.1124 1.1501 74.0252 1.19352 74.4375 2.57812L76.335 8.95605L76.3652 9.03223C76.4479 9.20185 76.6211 9.3134 76.8145 9.31348H83.1309L83.2617 9.31836C84.5461 9.42121 85.105 11.0247 84.1621 11.9033L84.0625 11.9883L78.8066 16.1582C78.6466 16.2851 78.5795 16.4966 78.6377 16.6924L80.6094 23.3174L80.6426 23.4482C80.9168 24.7471 79.4522 25.7376 78.3486 25L78.2393 24.9209L73.3105 21.0107C73.1513 20.8845 72.9344 20.8691 72.7607 20.9639L72.6895 21.0107L67.7607 24.9209C66.6119 25.8322 64.9724 24.7229 65.3906 23.3174L67.3623 16.6924L67.3779 16.6182C67.3984 16.4697 67.3511 16.3198 67.249 16.21L67.1934 16.1582L61.9375 11.9883C60.8244 11.1052 61.4484 9.31383 62.8691 9.31348H69.1855L69.2666 9.30664C69.453 9.27602 69.6097 9.14157 69.665 8.95605L71.5625 2.57812L71.6064 2.44824Z" fill="#F7FF00" stroke="black"/>
<mask id="mask0_447_3264" style="mask-type:alpha" maskUnits="userSpaceOnUse" x="103" y="0" width="13" height="27">
<rect width="13" height="26" transform="matrix(-1 0 0 1 116 0.5)" fill="#D9D9D9"/>
</mask>
<g mask="url(#mask0_447_3264)">
<path d="M104.383 2.19238C103.862 0.930516 102.003 0.973193 101.571 2.31934L99.4414 8.96582L99.4111 9.04004C99.327 9.2055 99.1559 9.31333 98.9658 9.31348H92.0439L91.9102 9.31836C90.6028 9.4242 90.0598 11.077 91.0498 11.9375L91.1543 12.0205L96.7773 16.1631C96.9502 16.2904 97.0225 16.5143 96.957 16.7188L94.8145 23.4033L94.7793 23.5332C94.4802 24.8162 95.901 25.8372 97.0215 25.1445L97.1328 25.0693L102.703 20.9658C102.857 20.8522 103.061 20.8377 103.228 20.9229L103.297 20.9658L108.867 25.0693C110.039 25.9323 111.63 24.7889 111.186 23.4033L109.043 16.7188L109.024 16.6416C109.001 16.4862 109.052 16.328 109.162 16.2158L109.223 16.1631L114.846 12.0205C116.012 11.1617 115.404 9.31348 113.956 9.31348H107.034L106.954 9.30664C106.771 9.27684 106.617 9.14673 106.559 8.96582L104.429 2.31934L104.383 2.19238Z" stroke="black"/>
</g>
<mask id="mask1_447_3264" style="mask-type:alpha" maskUnits="userSpaceOnUse" x="90" y="0" width="13" height="27">
<rect x="90" y="0.5" width="13" height="26" fill="#D9D9D9"/>
</mask>
<g mask="url(#mask1_447_3264)">
<path d="M101.617 2.19238C102.138 0.930516 103.997 0.973193 104.429 2.31934L106.559 8.96582L106.589 9.04004C106.673 9.2055 106.844 9.31333 107.034 9.31348H113.956L114.09 9.31836C115.397 9.4242 115.94 11.077 114.95 11.9375L114.846 12.0205L109.223 16.1631C109.05 16.2904 108.977 16.5143 109.043 16.7188L111.186 23.4033L111.221 23.5332C111.52 24.8162 110.099 25.8372 108.979 25.1445L108.867 25.0693L103.297 20.9658C103.143 20.8522 102.939 20.8377 102.772 20.9229L102.703 20.9658L97.1328 25.0693C95.9613 25.9323 94.3704 24.7889 94.8145 23.4033L96.957 16.7188L96.9756 16.6416C96.9994 16.4862 96.948 16.328 96.8379 16.2158L96.7773 16.1631L91.1543 12.0205C89.9884 11.1617 90.5959 9.31348 92.0439 9.31348H98.9658L99.0459 9.30664C99.229 9.27684 99.3834 9.14673 99.4414 8.96582L101.571 2.31934L101.617 2.19238Z" fill="#F6FF00" stroke="black"/>
</g>
<path d="M131.606 2.44824C132.112 1.1501 134.025 1.19352 134.438 2.57812L136.335 8.95605L136.365 9.03223C136.448 9.20185 136.621 9.3134 136.814 9.31348H143.131L143.262 9.31836C144.546 9.42121 145.105 11.0247 144.162 11.9033L144.062 11.9883L138.807 16.1582C138.647 16.2851 138.58 16.4966 138.638 16.6924L140.609 23.3174L140.643 23.4482C140.917 24.7471 139.452 25.7376 138.349 25L138.239 24.9209L133.311 21.0107C133.151 20.8845 132.934 20.8691 132.761 20.9639L132.689 21.0107L127.761 24.9209C126.612 25.8322 124.972 24.7229 125.391 23.3174L127.362 16.6924L127.378 16.6182C127.398 16.4697 127.351 16.3198 127.249 16.21L127.193 16.1582L121.938 11.9883C120.824 11.1052 121.448 9.31383 122.869 9.31348H129.186L129.267 9.30664C129.453 9.27602 129.61 9.14157 129.665 8.95605L131.562 2.57812L131.606 2.44824Z" stroke="black"/>
</svg>
