<svg width="30" height="29" viewBox="0 0 30 29" fill="none" xmlns="http://www.w3.org/2000/svg">
<path d="M3.36328 11.2227C3.36328 10.1836 3.52734 9.23438 3.85547 8.375C4.19141 7.50781 4.66016 6.75781 5.26172 6.125C5.86328 5.49219 6.56641 5.00391 7.37109 4.66016C8.18359 4.31641 9.0625 4.14453 10.0078 4.14453C11.0938 4.14453 12.0664 4.38281 12.9258 4.85938C13.7852 5.33594 14.4766 5.96875 15 6.75781C15.5312 5.96875 16.2227 5.33594 17.0742 4.85938C17.9336 4.38281 18.9062 4.14453 19.9922 4.14453C20.9453 4.14453 21.8242 4.31641 22.6289 4.66016C23.4414 5.00391 24.1445 5.49219 24.7383 6.125C25.3398 6.75781 25.8047 7.50781 26.1328 8.375C26.4688 9.23438 26.6367 10.1836 26.6367 11.2227C26.6367 12.8867 26.1953 14.5352 25.3125 16.168C24.4375 17.793 23.1914 19.3789 21.5742 20.9258C19.9648 22.4648 18.0586 23.9375 15.8555 25.3438C15.7305 25.4219 15.5859 25.4922 15.4219 25.5547C15.2656 25.625 15.125 25.6602 15 25.6602C14.8828 25.6602 14.7422 25.625 14.5781 25.5547C14.4219 25.4922 14.2812 25.4219 14.1562 25.3438C11.9531 23.9375 10.043 22.4648 8.42578 20.9258C6.80859 19.3789 5.55859 17.793 4.67578 16.168C3.80078 14.5352 3.36328 12.8867 3.36328 11.2227ZM5.25 11.2227C5.25 12.3086 5.51172 13.4102 6.03516 14.5273C6.55859 15.6367 7.26953 16.7266 8.16797 17.7969C9.06641 18.8672 10.082 19.8906 11.2148 20.8672C12.3555 21.8359 13.5391 22.7266 14.7656 23.5391C14.8906 23.6328 14.9688 23.6797 15 23.6797C15.0312 23.6797 15.1133 23.6328 15.2461 23.5391C16.4727 22.7266 17.6523 21.8359 18.7852 20.8672C19.9258 19.8906 20.9414 18.8672 21.832 17.7969C22.7305 16.7266 23.4414 15.6367 23.9648 14.5273C24.4883 13.4102 24.75 12.3086 24.75 11.2227C24.75 10.1836 24.543 9.27734 24.1289 8.50391C23.7227 7.72266 23.1602 7.11719 22.4414 6.6875C21.7305 6.25 20.9219 6.03125 20.0156 6.03125C19.2812 6.03125 18.6484 6.16406 18.1172 6.42969C17.5938 6.6875 17.1406 7.01562 16.7578 7.41406C16.3828 7.80469 16.0625 8.19141 15.7969 8.57422C15.625 8.80078 15.4844 8.95703 15.375 9.04297C15.2656 9.12891 15.1406 9.17188 15 9.17188C14.8594 9.17188 14.7305 9.13281 14.6133 9.05469C14.5039 8.96875 14.3672 8.80859 14.2031 8.57422C13.9531 8.18359 13.6406 7.79297 13.2656 7.40234C12.8906 7.01172 12.4336 6.6875 11.8945 6.42969C11.3555 6.16406 10.7188 6.03125 9.98438 6.03125C9.07812 6.03125 8.26562 6.25 7.54688 6.6875C6.83594 7.11719 6.27344 7.72266 5.85938 8.50391C5.45312 9.27734 5.25 10.1836 5.25 11.2227Z" fill="#8C6B52"/>
</svg>
