<svg width="30" height="29" viewBox="0 0 30 29" fill="none" xmlns="http://www.w3.org/2000/svg">
<path d="M15 25.6602C14.8828 25.6602 14.7422 25.625 14.5781 25.5547C14.4219 25.4922 14.2812 25.4219 14.1562 25.3438C11.9531 23.9375 10.043 22.4648 8.42578 20.9258C6.80859 19.3789 5.55859 17.793 4.67578 16.168C3.80078 14.5352 3.36328 12.8867 3.36328 11.2227C3.36328 10.1836 3.52734 9.23438 3.85547 8.375C4.19141 7.50781 4.65625 6.75781 5.25 6.125C5.84375 5.49219 6.53516 5.00391 7.32422 4.66016C8.11328 4.31641 8.96875 4.14453 9.89062 4.14453C11.0391 4.14453 12.0469 4.4375 12.9141 5.02344C13.7812 5.60938 14.4766 6.38281 15 7.34375C15.5312 6.375 16.2305 5.60156 17.0977 5.02344C17.9648 4.4375 18.9688 4.14453 20.1094 4.14453C21.0312 4.14453 21.8867 4.31641 22.6758 4.66016C23.4727 5.00391 24.1641 5.49219 24.75 6.125C25.3438 6.75781 25.8047 7.50781 26.1328 8.375C26.4688 9.23438 26.6367 10.1836 26.6367 11.2227C26.6367 12.8867 26.1953 14.5352 25.3125 16.168C24.4375 17.793 23.1914 19.3789 21.5742 20.9258C19.9648 22.4648 18.0586 23.9375 15.8555 25.3438C15.7305 25.4219 15.5859 25.4922 15.4219 25.5547C15.2656 25.625 15.125 25.6602 15 25.6602Z" fill="#8C6B52"/>
</svg>
